<?xml version="1.0" encoding="utf-8"?>
<!-- Generator: Adobe Illustrator 27.5.0, SVG Export Plug-In . SVG Version: 6.00 Build 0)  -->
<svg version="1.1" id="Layer_1" xmlns="http://www.w3.org/2000/svg" xmlns:xlink="http://www.w3.org/1999/xlink" x="0px" y="0px"
	 viewBox="0 0 595.28 841.89" style="enable-background:new 0 0 595.28 841.89;" xml:space="preserve">
<style type="text/css">
	.st0{fill:#F6B4BD;}
	.st1{fill:#F9F5EC;}
	.st2{fill:#31353A;}
	.st3{fill:#9BD3D9;}
	.st4{fill:#E94E3E;}
	.st5{fill:#FFD45E;}
	.st6{fill:#F297A7;}
	.st7{fill:#FFFFFF;}
	.st8{fill:#5CADBA;}
	.st9{fill:#CD2017;}
	.st10{fill:#522321;}
	.st11{fill:#E8E0D1;}
</style>
<g>
	<g>
		<path class="st0" d="M24.55,653.66c-1.51-3.29-1.16-7.76,0.39-9.03l459.88-13.37c0,0,59.67,17.75,75.09,31.48
			c12.79,11.39,18.1,79.09-6.59,95.44c-3.45,2.28,0.67,1.9-3.45,2.28c-43.58,4.04-367.7,22.22-402.11,20.64
			c-34.41-1.58-126.89-38.06-128.27-38.98c-1.39-0.92-1.85-8.32,0-10.17c1.85-1.85,25.88,2.77,25.88,2.77l5.79-69.59L24.55,653.66z"
			/>
	</g>
	<g>
		<path class="st1" d="M30.93,656.41c0,0,93.4,22.64,103.62,29.12c6.7,4.25,13.57,28.67,13.18,47.73
			c-0.39,19.06-8.95,32.67-26.06,31.11c-17.11-1.56-94.52-32.52-94.52-32.52s15.06-33.47,15.06-44.75
			C42.21,675.83,30.93,656.41,30.93,656.41z"/>
	</g>
	<g>
		<path class="st2" d="M563.84,597.14c-151.3-4.35-411.28-6.1-509.01-0.42c-18.48,13.11-15.03,48.58-1.2,60.86
			c170.47,2.34,336.94,3.08,507.38-0.2C572.82,638.5,573.86,616.5,563.84,597.14z"/>
	</g>
	<g>
		<path class="st3" d="M527.52,506.24c-126.42-6.3-341.64-5.82-423.3,2.4c-15.44,18.98-12.56,70.33-1,88.11
			c142.43,3.39,281.52,4.46,423.92-0.29C537.02,569.14,535.89,534.28,527.52,506.24z"/>
	</g>
	<g>
		<path class="st4" d="M564.89,439.21c1.35-2.94,1.04-6.94-0.35-8.08c0,0-306.98-21.36-338.95-18.86
			c-30.56,2.39-142.11,15.39-151.03,16.81c-7.78,1.23-24.23,53.94-7.69,72.86c2.44,2.79,5.94,4.16,9.62,4.6
			c30.38,3.65,282,16.77,334.48,16.77c42.01,0,157.21-20.84,158.45-21.67c1.24-0.83,1.65-7.44,0-9.09
			c-1.65-1.65-23.15,2.48-23.15,2.48l-7.85-50.84L564.89,439.21z"/>
	</g>
	<g>
		<path class="st1" d="M560.23,439.8c0,0-125.55,12.6-132.5,13.99c-6.96,1.39-14.96,17.39-14.61,34.43
			c0.35,17.04,7.8,23.97,23.1,22.58c15.3-1.39,126.34-18.32,126.34-18.32s-13.46-13.27-13.46-23.35S560.23,439.8,560.23,439.8z"/>
	</g>
	<g>
		<path class="st5" d="M463.98,373.97c-99.19-4.11-269.62-5.76-333.69-0.4c-12.11,12.39-7.94,39.34-0.79,57.5
			c111.75,2.21,220.89,2.91,332.62-0.19C469.87,413.06,470.54,392.27,463.98,373.97z"/>
	</g>
	<g>
		<path class="st6" d="M193.84,681.77c-0.52-1.14-4.39-2.29-3.65-0.66c14.39,31.66,14,68.3-0.97,99.68
			c-0.6,1.26,3.12,3.07,3.72,1.81C208.08,750.87,208.39,713.77,193.84,681.77z"/>
	</g>
	<g>
		<path class="st6" d="M214.86,680.25c-0.56-1.12-4.43-2.24-3.65-0.66c15.13,30.46,15.84,66.29,1.96,97.34
			c-0.58,1.29,3.16,3.07,3.72,1.81C230.92,747.35,230.16,711.04,214.86,680.25z"/>
	</g>
	<g>
		<path class="st6" d="M421.35,668.92c-84.9,5.42-169.94,8.33-255.01,8.76c-2.31,0.01,0.64,2.63,1.9,2.63
			c85.32-0.43,170.62-3.37,255.77-8.8C425.69,671.39,422.59,668.84,421.35,668.92z"/>
	</g>
	<g>
		<path class="st6" d="M493.98,664.95c-0.58-1.11-4.46-2.2-3.65-0.66c15.59,29.49,16.7,64.79,3.02,95.21
			c-0.58,1.29,3.15,3.07,3.72,1.81C510.9,730.55,509.74,694.77,493.98,664.95z"/>
	</g>
	<g>
		<path class="st6" d="M517.15,662.09c-0.64-1.06-4.52-2.12-3.65-0.66c17.6,29.48,19.94,66.04,6.24,97.53
			c-0.57,1.3,3.17,3.07,3.72,1.81C537.3,728.95,534.93,691.88,517.15,662.09z"/>
	</g>
	<g>
		<g>
			<path class="st7" d="M283.03,701.44c-8.72,0.2-17.36,0.95-25.99,2.24c-0.29,0.04-0.55,0.29-0.52,0.6
				c0.78,10.21,1.56,20.43,2.34,30.64c0.27,4.14,0.57,8.27,0.95,12.4c0.12,1.35,3.93,2.72,3.82,1.27c-0.32-4.13-0.63-8.27-0.95-12.4
				c-0.65-10.01-1.01-20.03-1.05-30.07c1.62-1.01,4.61-0.86,5.83-1.01c5.84-0.71,11.71-0.99,17.59-1.13
				C287.35,703.93,284.29,701.41,283.03,701.44z"/>
		</g>
		<g>
			<path class="st7" d="M271.06,719.16c-4.09,0.16-8.11,0.75-12.06,1.8c-1.74,0.46,1.55,2.79,2.77,2.47
				c3.71-0.99,7.46-1.58,11.31-1.73C275.37,721.62,272.31,719.11,271.06,719.16z"/>
		</g>
		<g>
			<path class="st7" d="M329.38,743.22c-0.07-0.41-0.14-0.81-0.21-1.22c-0.06-0.37-0.4-0.73-0.84-1.04l-10.99-22.11
				c6.77-2.34,12.18-5.68,8.91-9.99c-5.62-7.39-18.18-7.16-27.17-5.74c-1.05-0.58-2.34-0.78-2.45,0.19
				c-0.01,0.08-0.02,0.16-0.03,0.25c-0.24,0.05-0.48,0.09-0.71,0.14c-0.28,0.06-0.56,0.28-0.52,0.6c0.64,5.38,1.28,10.77,1.92,16.15
				c-0.75,0.2-0.48,0.75,0.15,1.28c0.79,6.65,1.58,13.3,2.37,19.95c0.16,1.32,3.94,2.73,3.82,1.27c-0.56-6.78-1.13-13.56-1.69-20.34
				c2.75-0.46,7.72-1.41,12.53-2.83c3.72,7.49,7.45,14.98,11.17,22.47C326.03,743.01,329.64,744.76,329.38,743.22z M305.5,705.14
				c3.9-0.36,7.84,0.1,11.67,0.78c12.18,2.15,3.11,8.14-1.21,9.85c-1.03,0.41-2.08,0.78-3.13,1.13c-3.72,0.85-7.44,1.69-11.15,2.54
				c-0.35-4.25-0.71-8.5-1.06-12.76C301.43,705.86,302.91,705.38,305.5,705.14z"/>
		</g>
		<g>
			<path class="st7" d="M397.88,702.19c-0.04-0.5-0.07-1-0.11-1.5c-0.09-1.29-3.8-2.82-3.82-1.27c-0.12,11.64-0.24,23.28-0.36,34.92
				c-6.57-8.8-11.77-18.38-15.66-28.69c-0.01-0.65-0.02-1.3-0.03-1.95c-0.02-1.19-3-2.43-3.68-1.68c-0.47-0.02-0.81,0.16-0.79,0.66
				c0.4,12.89,0.81,25.78,1.21,38.67c0.04,1.34,3.84,2.77,3.82,1.27c-0.14-9.58-0.28-19.16-0.41-28.73
				c4.2,8.9,9.46,17.22,15.79,24.9c0.43,0.52,3.51,2.29,3.53,0.65c0.13-12.28,0.26-24.55,0.38-36.83
				C397.85,702.5,397.9,702.37,397.88,702.19z"/>
		</g>
		<g>
			<path class="st7" d="M433.85,723.45c-1.57,4.69-3.48,8.71-7.34,11.98c-3.49,2.96-9.24,3.19-11.79-1.7
				c-1.1-2.11-1.12-5.03-1.27-7.35c-0.36-5.44,0.96-10.84,2.87-15.89c0.95-2.51,2.25-4.7,4.14-6.63c4.57-1.31,6.6,0.09,6.08,4.18
				c-0.08,1.53-0.28,3.05-0.62,4.54c-0.23,1.24,3.53,2.86,3.82,1.27c1.3-7.15-0.56-13.33-8.46-13.93
				c-9.01-0.68-11.31,16.92-11.65,22.82c-0.38,6.57,1.41,14.86,8.74,16.75c10.23,2.63,16.27-5.45,19.21-14.23
				C438.03,723.87,434.26,722.22,433.85,723.45z"/>
		</g>
		<g>
			<path class="st7" d="M468.84,711.6c0.19-0.1,0.32-0.27,0.3-0.51l-1.22-14.29c-0.11-1.34-3.91-2.74-3.82-1.27
				c0.25,3.95,0.49,7.9,0.74,11.86c-0.16,1.03-0.47,1.69-1.03,1.66c-4.36-0.26-8.73-0.53-13.09-0.79c-0.13-3.32-0.27-6.64-0.4-9.96
				c-0.05-1.35-3.88-2.74-3.82-1.27c0.15,3.67,0.3,7.33,0.45,11l-0.04,0c-0.39-0.02-0.94,0.15-0.9,0.64c0.7,9.3,1.4,18.6,2.1,27.89
				c0.1,1.33,3.88,2.76,3.82,1.27c-0.36-8.78-0.71-17.56-1.07-26.33c0.93-0.98,2.77-0.64,5.31-0.49c2.98,0.18,5.96,0.36,8.94,0.54
				c0.49,7.84,0.97,15.68,1.46,23.52c0.08,1.36,3.91,2.72,3.82,1.27C469.86,728.09,469.35,719.85,468.84,711.6z"/>
		</g>
		<g>
			<path class="st7" d="M361.67,735.02c-5.04,1.61-10.09,2.65-15.31,3.2c-0.55-7.4-0.74-14.79-0.57-22.19c0.03,0,0.07,0.01,0.1,0
				c3.04-0.21,6.07-0.55,9.09-1.03c0.99-0.16,0.34-1.21-0.07-1.58c-0.72-0.64-1.78-1.1-2.76-0.94c-2.08,0.33-4.17,0.57-6.26,0.76
				c0.11-3.09,0.28-6.17,0.51-9.26c2.82,0.05,5.65,0.09,8.47,0.14c0.86,0.01,1.15-0.63,0.63-1.29c-0.61-0.77-1.71-1.3-2.69-1.31
				c-2.7-0.04-5.4-0.09-8.09-0.13c-0.8-0.32-1.64-0.4-1.99,0c-0.63,0.12-0.8,0.69-0.34,1.27c0.03,0.04,0.07,0.07,0.11,0.1
				c-0.92,12.06-0.87,24.1,0.13,36.15c-0.03,0.07-0.06,0.14-0.05,0.25c0.05,0.34,0.1,0.68,0.15,1.02c0.19,1.33,4.04,2.8,3.9,1.3
				c0.04,0.26,16.61-3.52,17.88-3.92C366.29,736.97,362.9,734.63,361.67,735.02z"/>
		</g>
	</g>
	<g>
		<path class="st7" d="M116.32,635.17c-4.48,2.9-12.59,6.6-14.51-1.24c-0.55-2.25,0.15-4.59,1.01-6.65
			c0.53-1.28,4.96-7.56,6.61-4.01c0.53,1.14,4.4,2.28,3.65,0.67c-1.48-3.19-5.01-4.53-8.36-3.96c-4.81,0.82-6.9,7.58-6.86,11.65
			c0.05,4.01,3.47,8.01,7.28,9.05c5.45,1.49,9.95-0.29,14.54-3.27C120.87,636.61,117.46,634.42,116.32,635.17z"/>
	</g>
	<g>
		<path class="st7" d="M148.49,621.44c-2.34-2.21-6.13-2.8-8.78-1.24c-1-0.67-2.46-1.01-2.82-0.26c-2.17,4.51-4.57,10.66-0.44,14.88
			c3.59,3.66,8.54,3.95,12.15,0.21C152.44,631.05,152.48,625.19,148.49,621.44z M144.63,633.45c-0.73,0.76-1.68,1.3-2.67,1.67
			c-3.59,1.34-3.97-3.85-3.95-5.64c0.02-1.75,0.63-3.5,1.37-5.15c0.81,0.31,1.66,0.35,1.96-0.18c1.96-3.47,5.83-1.86,6.39,1.69
			C148.16,628.6,146.47,631.54,144.63,633.45z"/>
	</g>
	<g>
		<path class="st7" d="M182.29,622.31c-4.3-0.43-8.6-0.85-12.91-1.28c-0.69-0.28-1.41-0.39-1.82-0.18
			c-0.34-0.03-0.98,0.17-0.89,0.63c0.19,0.98,0.33,1.97,0.49,2.95c-0.09,5.16,0.17,10.31,0.82,15.45c0.15,1.22,3.73,2.89,3.82,1.27
			c0.27-5.2-0.02-10.33-0.82-15.45c0.01-0.73,0.02-1.45,0.05-2.18c4.42,0.44,8.85,0.87,13.27,1.31
			C186.53,625.07,183.49,622.42,182.29,622.31z"/>
	</g>
	<g>
		<path class="st7" d="M179.48,630.13c-2.95,0.17-5.91,0.34-8.86,0.5c-2.31,0.13,0.75,2.62,2.01,2.54c2.95-0.17,5.91-0.34,8.86-0.5
			C183.81,632.54,180.74,630.06,179.48,630.13z"/>
	</g>
	<g>
		<path class="st7" d="M216.19,621.45c-3.21-0.28-6.42-0.57-9.63-0.85c-0.45-0.04-1.19-0.19-1.97-0.28
			c-0.94-0.41-1.97-0.51-2.19,0.08c-0.35,0.1-0.65,0.26-0.85,0.52c-1.32,1.76-0.18,4.6,0.16,6.56c0.63,3.64,1.36,7.26,2.14,10.88
			c0.28,1.3,4.06,2.63,3.82,1.27c-1.01-5.53-1.49-11.08-1.49-16.69c1.21-0.16,2.9,0.25,3.76,0.33c2.75,0.24,5.5,0.49,8.25,0.73
			C220.44,624.19,217.4,621.55,216.19,621.45z"/>
	</g>
	<g>
		<path class="st7" d="M216.8,632.14c-0.63-0.8-1.65-1.19-2.63-1.28c-2.7-0.25-5.4-0.5-8.1-0.75c-0.86-0.08-1.1,0.66-0.62,1.26
			c0.63,0.8,1.65,1.19,2.63,1.28c2.7,0.25,5.4,0.5,8.1,0.75C217.04,633.48,217.28,632.75,216.8,632.14z"/>
	</g>
	<g>
		<path class="st7" d="M248.4,636.73c-4.86,2.81-9.73,0.4-10.57-5.07c0.22,0.02,0.44,0.03,0.66,0c3.74-0.43,7.49-0.86,11.23-1.29
			c0.46-0.05,0.62-0.52,0.44-0.9c-1.64-3.41-4.2-7.54-8.42-8c-4.61-0.49-7.2,2.71-7.76,7.07c-1.19,9.24,10.59,14.55,17.77,10.4
			C252.95,638.26,249.59,636.04,248.4,636.73z M244.44,625.17c0.72,0.81,1.22,1.84,1.69,2.84c-2.73,0.31-5.46,0.63-8.19,0.94
			c0.23-1.01,0.63-1.97,1.15-2.87C240.08,624.37,242.47,622.95,244.44,625.17z"/>
	</g>
	<g>
		<path class="st7" d="M327.8,629.2c-1.65-0.52-3.38-0.67-5.12-0.64c1.64-1.54,3.04-3.26,2.24-4.4c-1.84-2.64-6.14-3.45-9.06-4.26
			c-3.22-0.9-3.75,1.21-3.34,3.94c0.53,3.52,1.07,7.05,1.6,10.57c0.18,1.47,0.4,2.94,0.67,4.4c0.19,1.06,2.67,2.13,3.53,1.79
			c5.46,1.09,15.48,0.23,15.07-6.84C333.25,631.28,329.71,629.8,327.8,629.2z M320.73,623.69c1.5,0.52-1.35,2.19-1.88,2.7
			c-0.5,0.49-1.01,0.97-1.51,1.46c-0.04-1.39-0.04-2.78-0.01-4.18c0.01-0.38-0.29-0.76-0.73-1.09c0.06-0.09,0.1-0.18,0.17-0.27
			C318.12,622.68,319.43,623.23,320.73,623.69z M328.19,635.87c-2.34,2.48-6.48,3.13-9.82,2.56c-0.14-0.92-0.28-1.83-0.42-2.75
			c-0.18-1.41-0.31-2.81-0.41-4.22c0.55,0.18,1.06,0.27,1.32,0.24c1.62-0.23,3.21-0.44,4.85-0.55
			C326.53,630.94,331.4,632.47,328.19,635.87z"/>
	</g>
	<g>
		<path class="st7" d="M359.13,626.02c-0.06,0.21-0.02,0.42,0.07,0.62c-1.21,4.39,0.6,8.38,5.39,10.59
			c5.01,2.31,11.02,0.41,13.15-4.76C382.31,621.41,362.5,613.84,359.13,626.02z M374.03,630.66c-0.91,2.99-3.76,4.81-6.77,4.99
			c-6.32,0.39-4.96-6.94-3.03-10.29c0.08-0.15,0.1-0.3,0.06-0.46c1.03-1.32,2.48-2.25,4.29-2.69
			C373.58,621,375.09,627.17,374.03,630.66z"/>
	</g>
	<g>
		<path class="st7" d="M416.45,622.64c-4.66-1-8.22,1.09-10.44,4.45c-1.69,1.58-2.37,3.57-2.25,5.53c-0.06,0.29-0.12,0.59-0.17,0.89
			c-0.05,0.33,0.17,0.68,0.53,1c0.67,2.05,2.2,3.9,4.33,4.99c5.42,2.77,11.22,1.2,14.24-4.17
			C425.69,629.96,422.12,623.85,416.45,622.64z M419.34,632.65c-1.05,3.15-4.16,5.57-7.45,5.74c-3.06,0.16-4.34-2.07-4.33-4.5
			c0.33-1.63,0.88-3.14,1.69-4.49c0.1-0.1,0.19-0.22,0.3-0.31c0.17-0.15,0.23-0.32,0.22-0.5c0.76-1.04,1.71-1.96,2.9-2.73
			c1.76-1.14,4.54-1.56,6.16,0.16C420.47,627.78,420.01,630.65,419.34,632.65z"/>
	</g>
	<g>
		<path class="st7" d="M444.2,621.39c0.12-1.3-3.67-2.83-3.82-1.27c-0.61,6.54-0.48,13.03,0.39,19.55c0.18,1.36,4,2.65,3.82,1.27
			C443.72,634.43,443.59,627.94,444.2,621.39z"/>
	</g>
	<g>
		<path class="st7" d="M457.93,618.57c-6.09,3.41-12.36,6.45-18.83,9.08c-1.34,0.54,0.29,1.8,0.95,2.13
			c5.64,2.83,11.34,5.55,17.09,8.15c2.24,1.02,3.13-0.76,0.87-1.78c-4.81-2.18-9.58-4.46-14.32-6.8c6.02-2.52,11.89-5.35,17.59-8.55
			C462.48,620.12,459.14,617.9,457.93,618.57z"/>
	</g>
	<g>
		<path class="st7" d="M535.62,619.39c-0.09-0.08-0.19-0.16-0.29-0.23c-6.3-4.65-17.92,0.15-19.39,6.3
			c-0.39,1.65-0.07,3.75,1.67,4.62c1.2,0.6,2.7,0.38,3.84-0.18c1.14-0.56,2.03-1.43,3.01-2.18c2.2-1.69,4.95-2.84,7.88-3.32
			c0.93-0.15,1.9-0.24,2.77-0.55c0.87-0.31,1.65-0.91,1.84-1.72C537.2,621.14,536.51,620.13,535.62,619.39z"/>
	</g>
	<g>
		<path class="st7" d="M539.12,629.83c0.1-0.97-0.11-1.94-0.82-2.75c-0.87-0.99-2.33-1.49-3.69-1.47c-2.45,0.04-4.38,1.54-6.2,2.87
			c-1.8,1.32-3.7,2.56-5.67,3.69c-1.41,0.81-2.93,1.51-1.97,3.18c0.84,1.45,2.79,2.14,4.46,2.36c5.16,0.69,10.41-1.45,12.89-5.26
			C538.64,631.68,539.03,630.76,539.12,629.83z"/>
	</g>
	<g>
		<path class="st8" d="M192.65,579.2c86.67,1.8,173.42,0.02,259.95-5.32c1.34-10.18-0.06-20.71-4.02-30.18
			c-84.55-1.04-169.1-2.08-253.65-3.11C190.43,552.87,189.63,566.48,192.65,579.2z"/>
	</g>
	<g>
		<path class="st9" d="M204.41,481.57c34.85,0.65,69.71,1.3,104.56,1.95c-0.35-4.08-0.71-8.16-1.06-12.24
			c-34.14-1.34-68.28-2.69-102.42-4.03C204.07,471.86,203.7,476.79,204.41,481.57z"/>
	</g>
	<g>
		<path class="st9" d="M151.48,511.73c-7.57-22.47-6.78-48.59,2.13-70.57c-11.66-0.18-23.32-1.08-34.59-2.11
			c-13.8,19.99-16.28,47.51-7.65,70.21L151.48,511.73z"/>
	</g>
	<g>
		<path class="st9" d="M389.63,523.66c-7.57-24.31-6.78-52.58,2.13-76.36c-11.66-0.2-23.32-1.17-34.59-2.28
			c-13.8,21.63-16.28,51.41-7.65,75.97L389.63,523.66z"/>
	</g>
	<g>
		<path class="st7" d="M180.61,432.42c-8.7-18.64-9.25-39.56-1.57-58.64c0.54-1.33-3.22-3.06-3.72-1.81
			c-7.81,19.43-7.21,40.81,1.64,59.79C177.5,432.9,181.36,434.03,180.61,432.42z"/>
	</g>
	<g>
		<path class="st7" d="M426.06,373.87c-0.56-1.12-4.43-2.23-3.65-0.67c8.55,17.08,10.47,36.19,5.45,54.62
			c-0.39,1.44,3.39,3.02,3.72,1.81C436.7,410.83,434.78,391.31,426.06,373.87z"/>
	</g>
</g>
<g>
	<g>
		<path class="st4" d="M227.68,206.78c5.68,56.97,10.59,106.97,24.81,162.43c23.38,8.94,64.52,16.38,109.57,1.88
			c15.59-55.51,24.39-110.32,23.94-166.51C336.98,188.92,280.96,193.62,227.68,206.78z"/>
	</g>
	<g>
		<path class="st4" d="M376.19,227.65c3.46,4.73,8.87,7.98,14.67,8.81c6.87,0.98,13.85-1.3,20.75-0.63
			c12.23,1.2,22.06,11.92,25.09,23.83c3.03,11.91,0.35,24.61-4.33,35.97c-6.85,16.64-18.01,31.48-32.1,42.68
			c-12.93,10.28-28.03,17.38-42.98,24.38c4.23-14.1,6.93-28.66,8.06-43.34c9.31,4.47,20.66,3.4,29.88-1.25
			c9.22-4.64,16.5-12.51,22.1-21.18c3.77-5.84,6.91-12.27,7.66-19.18c0.75-6.91-1.21-14.37-6.33-19.06c-5.96-5.46-15.09-6.2-22.86-4
			c-9.34,2.65-17.3,8.99-23.49,16.47c-6.19,7.48-10.82,16.11-15.39,24.67L376.19,227.65z"/>
	</g>
	<g>
		<path class="st9" d="M376.86,207.04c-6.34,2.69-12.82,5.04-19.39,7.02c-33.42,10.14-69.34,11.15-102.92,2.02
			c-0.01,0-0.01,0-0.01,0c-6.49-1.75-12.88-3.89-19.16-6.42C281.93,198.7,330,197.47,376.86,207.04z"/>
	</g>
	<g>
		<path class="st10" d="M357.47,214.06c-33.42,10.14-69.34,11.15-102.92,2.02C288.6,210.06,323.26,209.25,357.47,214.06z"/>
	</g>
	<g>
		<path class="st11" d="M297.74,190.88c-15.22-16.83-16.99-42.18-12.31-64.38c4.68-22.2,14.83-42.88,20.8-64.77
			c2.73,31.14,8.84,61.98,18.19,91.8c0.79-6.21,2.16-12.55,5.76-17.67c3.6-5.12,9.88-8.77,16.04-7.67
			c-3.45,27.69-17,54.01-37.53,72.91L297.74,190.88z"/>
	</g>
	<g>
		<path class="st11" d="M332.52,118.96c2.98-19.89,3.96-40.08,2.92-60.17c7,6.5,11.32,15.8,11.79,25.34
			C347.69,93.67,338.85,111.82,332.52,118.96z"/>
	</g>
</g>
</svg>
